<svg width="54" height="54" fill="none" xmlns="http://www.w3.org/2000/svg"><path d="M27 .5C12.363.5.5 12.363.5 27S12.363 53.5 27 53.5 53.5 41.637 53.5 27 41.637.5 27 .5Zm13.426 22.794c-.062.249-.207.61-.414 1.056h.01l-.02.041c-1.201 2.547-4.327 7.557-4.327 7.557s-.01-.01-.021-.031l-.921 1.584h4.41l-8.416 11.128 1.915-7.567h-3.468l1.211-5.01c-.973.227-2.122.559-3.489.993 0 0-1.842 1.077-5.32-2.07 0 0-2.34-2.05-.984-2.567.58-.218 2.806-.497 4.555-.725 2.37-.32 3.82-.486 3.82-.486s-7.298.103-9.027-.156c-1.729-.269-3.923-3.136-4.4-5.662 0 0-.724-1.387 1.554-.725 2.277.653 11.707 2.557 11.707 2.557s-12.256-3.768-13.074-4.679c-.818-.91-2.401-4.979-2.194-7.484 0 0 .093-.62.735-.455 0 0 9.067 4.12 15.268 6.387 6.19 2.246 11.584 3.385 10.89 6.314Z" fill="#fff"/></svg>