<svg width="49" height="48" fill="none" xmlns="http://www.w3.org/2000/svg"><path d="M43.167 0A5.333 5.333 0 0 1 48.5 5.333v37.334A5.333 5.333 0 0 1 43.167 48H5.833A5.333 5.333 0 0 1 .5 42.667V5.333A5.333 5.333 0 0 1 5.833 0h37.334Zm-1.334 41.333V27.2a8.693 8.693 0 0 0-8.693-8.693c-2.267 0-4.907 1.386-6.187 3.466v-2.96h-7.44v22.32h7.44V28.187c0-2.054 1.654-3.734 3.707-3.734a3.734 3.734 0 0 1 3.733 3.734v13.146h7.44ZM10.847 14.827a4.48 4.48 0 0 0 4.48-4.48c0-2.48-2-4.507-4.48-4.507a4.507 4.507 0 0 0-4.507 4.507c0 2.48 2.027 4.48 4.507 4.48Zm3.706 26.506v-22.32H7.167v22.32h7.386Z" fill="#fff"/></svg>