<svg width="44" height="48" fill="none" xmlns="http://www.w3.org/2000/svg"><path d="M38 22.667v-12l-5.627 2.826c.187.8.294 1.627.294 2.507 0 5.893-4.774 10.667-10.667 10.667S11.333 21.893 11.333 16c0-.88.107-1.707.294-2.507l-8.294-4.16L22 0l18.667 9.333v13.334H38Zm-16-4L16.667 16c0 2.933 2.4 5.333 5.333 5.333 2.933 0 5.333-2.4 5.333-5.333L22 18.667Zm7.333-9.547L22.427 5.6l-7.174 3.653 6.934 3.52 7.146-3.653ZM22 29.333c7.12 0 21.333 3.547 21.333 10.667v8H.667v-8C.667 32.88 14.88 29.333 22 29.333Zm0 5.067c-8 0-16.267 3.893-16.267 5.6v2.933h32.534V40c0-1.707-8.347-5.6-16.267-5.6Z" fill="#F0075F"/></svg>