<svg width="44" height="48" fill="none" xmlns="http://www.w3.org/2000/svg"><path d="M38 22.667v-12l-5.626 2.826c.186.8.293 1.627.293 2.507 0 5.893-4.773 10.667-10.667 10.667-5.893 0-10.666-4.774-10.666-10.667 0-.88.106-1.707.293-2.507l-8.293-4.16L22 0l18.667 9.333v13.334H38Zm-16-4L16.667 16c0 2.933 2.4 5.333 5.333 5.333 2.934 0 5.334-2.4 5.334-5.333L22 18.667Zm7.334-9.547L22.427 5.6l-7.173 3.653 6.933 3.52 7.147-3.653ZM22 29.333c7.12 0 21.334 3.547 21.334 10.667v8H.667v-8C.667 32.88 14.88 29.333 22 29.333Zm0 5.067c-8 0-16.266 3.893-16.266 5.6v2.933h32.533V40c0-1.707-8.347-5.6-16.267-5.6Z" fill="#F7DE3F"/></svg>