<svg width="49" height="48" fill="none" xmlns="http://www.w3.org/2000/svg"><path d="M10.1 20.8c3.733 7.467 10.133 13.6 17.6 17.6l5.867-5.867c.8-.8 1.866-1.066 2.666-.533 2.934 1.067 6.134 1.6 9.6 1.6 1.6 0 2.667 1.067 2.667 2.667v9.066c0 1.6-1.067 2.667-2.667 2.667C20.767 48 .5 27.733.5 2.667.5 1.067 1.833 0 3.167 0H12.5c1.6 0 2.667 1.067 2.667 2.667 0 3.2.533 6.4 1.6 9.6.266.8 0 1.866-.534 2.666L10.1 20.8ZM29.833 0c-1.6 0-2.666 1.067-2.666 2.667 0 1.6 1.066 2.666 2.666 2.666 1.6 0 2.667-1.066 2.667-2.666C32.5 1.067 31.433 0 29.833 0Zm8 0c-1.6 0-2.666 1.067-2.666 2.667 0 1.6 1.066 2.666 2.666 2.666 1.6 0 2.667-1.066 2.667-2.666C40.5 1.067 39.433 0 37.833 0Zm8 0c-1.6 0-2.666 1.067-2.666 2.667 0 1.6 1.066 2.666 2.666 2.666 1.6 0 2.667-1.066 2.667-2.666C48.5 1.067 47.433 0 45.833 0Zm-16 8c-1.6 0-2.666 1.067-2.666 2.667 0 1.6 1.066 2.666 2.666 2.666 1.6 0 2.667-1.066 2.667-2.666C32.5 9.067 31.433 8 29.833 8Zm8 0c-1.6 0-2.666 1.067-2.666 2.667 0 1.6 1.066 2.666 2.666 2.666 1.6 0 2.667-1.066 2.667-2.666C40.5 9.067 39.433 8 37.833 8Zm8 0c-1.6 0-2.666 1.067-2.666 2.667 0 1.6 1.066 2.666 2.666 2.666 1.6 0 2.667-1.066 2.667-2.666C48.5 9.067 47.433 8 45.833 8Zm-16 8c-1.6 0-2.666 1.067-2.666 2.667 0 1.6 1.066 2.666 2.666 2.666 1.6 0 2.667-1.066 2.667-2.666 0-1.6-1.067-2.667-2.667-2.667Zm8 0c-1.6 0-2.666 1.067-2.666 2.667 0 1.6 1.066 2.666 2.666 2.666 1.6 0 2.667-1.066 2.667-2.666 0-1.6-1.067-2.667-2.667-2.667Zm8 0c-1.6 0-2.666 1.067-2.666 2.667 0 1.6 1.066 2.666 2.666 2.666 1.6 0 2.667-1.066 2.667-2.666 0-1.6-1.067-2.667-2.667-2.667Z" fill="#fff"/></svg>