<svg width="55" height="44" fill="none" xmlns="http://www.w3.org/2000/svg"><path d="M20.833.667c-11.04 0-20 7.173-20 16 0 5.04 2.88 9.493 7.414 12.427l-2.08 6.24 6.666-4a23.57 23.57 0 0 0 7.76 1.333C19.9 30.987 19.5 29.2 19.5 27.334c0-8.827 8.347-16 18.667-16 .506 0 1.013 0 1.493.08C36.94 5.174 29.58.667 20.833.667Zm-8 6.667a2.667 2.667 0 1 1 0 5.333 2.667 2.667 0 0 1 0-5.333Zm13.334 0a2.667 2.667 0 1 1 0 5.333 2.667 2.667 0 0 1 0-5.333Zm12 6.666c-8.827 0-16 5.974-16 13.334 0 7.36 7.173 13.333 16 13.333 1.786 0 3.493-.213 5.093-.667l5.573 3.334-1.653-4.987c4.187-2.427 6.987-6.453 6.987-11.013 0-7.36-7.174-13.334-16-13.334Zm-5.334 6.667a2.667 2.667 0 1 1 0 5.333 2.667 2.667 0 0 1 0-5.333Zm10.667 0a2.666 2.666 0 1 1 0 5.333 2.666 2.666 0 0 1 0-5.333Z" fill="#fff"/></svg>